<?xml version="1.0" standalone="no"?>
<!DOCTYPE svg PUBLIC "-//W3C//DTD SVG 20010904//EN"
 "http://www.w3.org/TR/2001/REC-SVG-20010904/DTD/svg10.dtd">
<svg version="1.0" xmlns="http://www.w3.org/2000/svg"
 width="626.000000pt" height="626.000000pt" viewBox="0 0 626.000000 626.000000"
 preserveAspectRatio="xMidYMid meet">
<metadata>
Created by potrace 1.16, written by Peter Selinger 2001-2019
</metadata>
<g transform="translate(0.000000,626.000000) scale(0.100000,-0.100000)"
fill="#000000" stroke="none">
<path d="M2980 4266 c-78 -20 -145 -51 -212 -97 -49 -33 -66 -39 -109 -39 -43
0 -55 -5 -80 -29 -16 -16 -29 -37 -29 -45 0 -11 -9 -16 -27 -17 -68 -2 -143
-53 -169 -116 -11 -25 -14 -99 -14 -315 0 -315 4 -336 69 -391 44 -36 89 -47
207 -47 79 0 104 -3 114 -15 23 -28 130 -85 209 -112 65 -23 92 -27 191 -26
99 0 126 4 195 27 79 27 181 82 205 111 10 12 36 15 114 15 118 0 163 11 207
47 65 55 69 76 69 391 0 216 -3 290 -14 315 -26 63 -101 114 -168 116 -22 1
-28 6 -28 23 0 12 -9 41 -20 64 -32 66 -104 91 -175 60 -27 -11 -34 -10 -75
15 -82 51 -164 72 -290 75 -76 2 -134 -1 -170 -10z m327 -61 c206 -65 361
-242 399 -455 51 -286 -114 -563 -396 -661 -95 -33 -257 -33 -358 0 -183 60
-331 212 -385 397 -71 241 28 508 241 651 139 93 336 120 499 68z"/>
<path d="M3117 4204 c-4 -4 -7 -15 -7 -24 0 -14 13 -19 63 -24 134 -16 244
-71 334 -170 79 -86 133 -217 133 -320 0 -37 21 -53 40 -30 28 33 -20 220 -80
314 -69 108 -215 212 -335 238 -78 18 -139 24 -148 16z"/>
<path d="M3130 4122 c0 -7 253 -443 255 -440 1 2 33 56 70 121 l67 118 -26 33
c-59 78 -193 152 -300 164 -36 5 -66 7 -66 4z"/>
<path d="M2995 4106 c-59 -19 -115 -49 -171 -94 -48 -38 -112 -118 -102 -127
3 -3 118 -4 255 -3 l250 3 -66 117 c-73 130 -76 132 -166 104z"/>
<path d="M3418 3677 c-65 -112 -120 -211 -124 -221 -6 -15 5 -16 132 -14 l138
3 20 55 c29 83 27 224 -6 309 -13 36 -29 66 -34 68 -5 1 -62 -89 -126 -200z"/>
<path d="M2683 3813 c-42 -102 -39 -238 8 -352 18 -42 25 -50 34 -39 13 14
245 415 245 423 0 3 -61 5 -136 5 l-135 0 -16 -37z"/>
<path d="M2577 3663 c-22 -21 12 -177 58 -270 84 -171 290 -302 473 -303 39 0
43 2 40 23 -3 19 -11 23 -70 29 -231 26 -414 200 -449 428 -6 41 -13 81 -15
88 -4 13 -26 16 -37 5z"/>
<path d="M2806 3495 c-53 -92 -64 -119 -56 -134 19 -36 116 -115 177 -143 61
-29 186 -58 198 -46 5 5 -225 412 -244 431 -4 4 -38 -44 -75 -108z"/>
<path d="M3040 3404 c0 -8 106 -194 122 -216 11 -14 21 -15 63 -7 111 21 248
112 298 198 l18 31 -250 0 c-138 0 -251 -3 -251 -6z"/>
<path d="M2101 2763 c-12 -10 -32 -40 -45 -67 l-24 -49 -16 31 c-47 91 -222
97 -303 10 -12 -12 -34 -50 -49 -83 -24 -51 -28 -73 -28 -150 0 -107 15 -164
53 -207 32 -35 73 -40 114 -13 35 23 67 103 67 168 l0 54 40 12 c22 6 57 26
77 44 29 25 35 28 30 12 -3 -11 -9 -61 -12 -111 -7 -88 2 -134 24 -134 5 0 25
29 46 65 21 35 49 74 62 87 l24 22 -16 -37 c-19 -47 -19 -87 1 -115 19 -27 43
-28 95 -2 l40 21 26 -21 c72 -56 161 21 151 131 -4 42 -3 47 11 39 29 -15 48
-44 56 -85 17 -96 53 -120 130 -86 47 21 47 21 72 1 72 -56 161 22 151 131 -3
27 -3 49 -2 49 2 0 22 -16 43 -35 25 -22 42 -32 46 -25 10 15 -40 77 -78 97
-41 21 -108 21 -140 0 -30 -19 -57 -75 -57 -116 0 -24 -7 -34 -31 -46 -17 -9
-40 -15 -52 -13 -19 3 -22 10 -25 63 -5 86 9 105 73 105 35 0 57 5 65 15 17
20 10 26 -38 32 l-40 5 19 32 c27 45 26 120 -3 140 -39 28 -84 -19 -114 -121
-15 -53 -16 -53 -56 -53 -47 0 -49 -22 -2 -30 21 -4 30 -12 32 -28 l4 -23 -42
27 c-49 33 -114 37 -155 10 -29 -19 -55 -71 -55 -110 0 -26 -45 -70 -64 -63
-16 6 -8 63 15 108 11 22 19 53 17 67 -5 45 -34 38 -92 -22 l-54 -55 44 92
c77 163 82 247 15 247 -16 0 -38 -8 -50 -17z m-171 -88 c53 -28 54 -97 1 -132
-50 -34 -61 -31 -50 15 14 61 12 72 -15 72 -31 0 -56 -34 -56 -77 0 -35 -9
-40 -41 -23 -17 9 -19 7 -19 -18 0 -23 6 -32 30 -42 24 -10 30 -18 30 -44 -1
-57 -18 -118 -38 -138 l-20 -20 -20 20 c-24 24 -38 125 -28 210 8 72 49 158
84 177 35 19 106 19 142 0z"/>
<path d="M4159 2749 c-30 -32 -69 -139 -69 -189 0 -22 -7 -30 -40 -43 -44 -17
-74 -58 -93 -125 -8 -31 -18 -44 -35 -49 -12 -3 -25 -3 -29 0 -3 3 0 35 6 70
17 96 15 127 -8 127 -28 0 -37 -17 -51 -95 -15 -81 -25 -105 -45 -105 -24 0
-25 15 -10 96 16 83 15 104 -8 104 -24 0 -39 -28 -51 -92 -10 -54 -16 -65 -46
-86 -19 -13 -45 -22 -60 -20 -23 3 -25 7 -28 63 -5 88 7 103 82 107 48 2 61 7
64 20 3 14 -6 19 -38 24 -33 5 -40 10 -34 23 37 88 38 125 3 157 -17 15 -20
15 -44 0 -29 -19 -54 -64 -70 -126 -11 -44 -12 -45 -54 -48 -48 -4 -52 -24 -5
-32 29 -5 29 -6 36 -91 10 -143 44 -179 131 -141 43 19 44 19 55 1 17 -26 49
-24 88 6 31 24 33 24 39 6 9 -29 38 -34 81 -16 34 14 39 14 55 -1 23 -21 79
-12 104 16 18 20 18 20 41 -5 27 -29 44 -31 85 -10 27 14 31 14 45 0 21 -20
52 -19 98 4 37 19 38 19 57 0 66 -66 179 47 149 149 -11 41 -2 40 40 -3 37
-39 50 -43 50 -19 0 26 -72 91 -113 102 -84 23 -157 -31 -157 -118 0 -39 -4
-52 -22 -64 -53 -37 -59 -13 -28 105 10 41 16 77 11 82 -4 4 -18 4 -32 -1 -19
-7 -28 -24 -45 -83 -15 -52 -28 -79 -47 -92 -56 -43 -75 10 -34 98 41 88 71
189 71 241 0 86 -42 110 -95 53z"/>
<path d="M3273 2731 c-49 -13 -83 -39 -99 -77 -12 -30 -12 -39 0 -69 15 -35
46 -58 156 -118 59 -32 79 -65 62 -101 -18 -39 -57 -59 -117 -60 -71 -1 -100
24 -100 87 0 31 -4 43 -16 45 -48 9 -67 -83 -27 -133 29 -37 76 -55 145 -55
110 1 183 55 183 136 0 58 -32 93 -135 148 -60 31 -82 49 -90 70 -8 25 -6 31
18 52 49 42 158 26 165 -23 2 -12 -4 -36 -13 -53 -20 -39 -8 -58 24 -41 23 13
51 60 51 86 0 29 -30 75 -60 90 -37 19 -105 26 -147 16z"/>
<path d="M3127 371 c-2 -10 -18 -24 -36 -32 -35 -16 -36 -21 -13 -69 15 -30
23 -35 56 -38 25 -2 44 2 57 14 27 24 24 35 -8 29 l-28 -5 27 10 c14 6 29 18
32 27 7 17 -12 46 -24 38 -5 -3 -20 6 -33 19 -23 23 -25 23 -30 7z"/>
</g>
</svg>
